<?xml version="1.0" encoding="utf-8"?>
<!-- Generator: Adobe Illustrator 19.2.1, SVG Export Plug-In . SVG Version: 6.00 Build 0)  -->
<svg version="1.1" xmlns="http://www.w3.org/2000/svg" xmlns:xlink="http://www.w3.org/1999/xlink" x="0px" y="0px"
	 viewBox="0 0 960 560" style="enable-background:new 0 0 960 560;" xml:space="preserve">
<style type="text/css">
	.st0{display:none;}
	.st1{display:inline;stroke:#FFFFFF;stroke-miterlimit:10;}
	.st2{opacity:0.8;fill:none;stroke:#FFFFFF;stroke-width:3;stroke-miterlimit:10;}
	.st3{opacity:0.6;fill:none;stroke:#F2F2F2;stroke-miterlimit:10;}
	.st4{opacity:0.4;fill:none;stroke:#FFFFFF;stroke-width:2;stroke-miterlimit:10;}
	.st5{opacity:0.2;fill:none;stroke:#FFFFFF;stroke-width:2;stroke-miterlimit:10;}
</style>
<g id="Layer_3" class="st0">
	<rect class="st1" width="960" height="560"/>
</g>
<g id="Layer_2">
	<path class="st2" d="M0,484.1c0,0,176.7-100.5,215.2-159s51.9,0,74.2,63s105.3,163.5,126.1-67.5c20.8-231,32.6-219,49-133.5
		c16.3,85.5,51.9,109.5,103.9,46.5c51.9-63,50.4-27,56.4-1.5s29.7,105,74.2-33s92-183,112.8-51s43,183,66.8,204
		c23.7,21,81.6-6,81.6-6"/>
	<path class="st3" d="M0,257.6c0,0,76-112.5,134.2-67.5s44.3-18.2,72.1-10.6c27.8,7.6,5.1,58.6,37.9,78.1c0,0,101.2,86.1,174.5,19.1
		s74.6-64.9,93.6,0c19,64.9,16.4-64.1,62-64.1c45.5,0-10.1,70.5,137.9,121.5s247.9-114,247.9-114"/>
	<path class="st4" d="M0,261.3c0,0,26.5,63.7,131.2,33.7s178.6-114.9,199.5-18.4c20.9,96.4,55.7,202.9,129,93.4s38.4-46.5,84.5-37.5
		c46,9,11-98.3,45.3-43.9c34.3,54.4,92.9,172.9,148.7,55.2s221.9-165,221.9-165"/>
	<path class="st5" d="M0,311.6c0,0,43.4,91.5,217.2-6s211.4-34.5,298.3,0s28.1-69.1,99.9-70.5s134.7,117,204.2,78
		s118.7-13.5,140.5,66"/>
</g>
</svg>
